<?xml version="1.0" encoding="UTF-8"?>
<svg id="Layer_1" data-name="Layer 1" xmlns="http://www.w3.org/2000/svg" viewBox="0 0 738.67 351.11">
  <defs>
    <style>
      .cls-1 {
        fill: #4184f2;
      }

      .cls-2 {
        fill: #e84234;
      }

      .cls-3 {
        fill: #f8ba05;
      }

      .cls-4 {
        fill: #4184f1;
      }

      .cls-5 {
        fill: #33a652;
      }
    </style>
  </defs>
  <path class="cls-4" d="M170.58,195.43h-57.65v-24.46h81.53c4.16,29.4-3.66,58.92-27.1,78.02-29.09,23.7-72.63,23.5-103.66,3.53-41.8-26.91-53.84-83.29-24.63-124.24,30.95-43.4,95.14-52.53,133.79-14l-16.55,16.99c-26.28-24.44-68.36-22.26-91.71,5.07-22.83,26.72-19.69,68.55,6.97,91.42,33.56,28.8,93.9,15.48,99.01-32.33Z"/>
  <path class="cls-1" d="M536.88,165.73v-8.44l.87-.87h23v110.93c-1.88,21.54-12.78,41.14-34.24,47.88-28.41,8.93-58.25-2.55-69.96-30.35l21.71-9.13c8.87,24.05,45.82,27.88,55.98,2.95.75-1.84,2.63-7.34,2.63-9.02v-15.43l-8.93,7.09c-38.94,19.55-79.1-15.22-76.12-56.32,2.94-40.52,52.8-70.06,85.05-39.29ZM504.72,175.8c-37.1,4.24-36.43,65.01-.16,68.55,46.48,4.54,44.58-73.63.16-68.55Z"/>
  <path class="cls-3" d="M381.86,153.1c75.64-5.08,82.39,108.5,8.56,113.96-76.59,5.67-84.41-108.87-8.56-113.96ZM381.86,175.81c-38.16,4.11-36.8,65.13-.16,68.54,48.12,4.47,47.03-73.58.16-68.54Z"/>
  <path class="cls-2" d="M258.4,153.1c42.77-2.86,72.52,38.75,57.04,78.59-17.65,45.44-83.89,47.39-104.79,3.75-17.67-36.89,6.88-79.61,47.74-82.34ZM258.39,175.8c-43.91,4.94-33.22,80.1,12.83,67.57,35.87-9.76,28.5-72.22-12.83-67.57Z"/>
  <path class="cls-2" d="M715.66,195.99l-75.69,30.9c-1.4,1.62,6.79,10.3,8.46,11.63,11.59,9.23,30.02,7.55,40.73-2.33,2.43-2.24,3.94-5.2,6.4-7l18.69,12.24c.63.98-3.25,5.45-4.1,6.42-24.8,28.47-72.49,24.86-91.62-7.98-17.93-30.79-4.69-74.74,30.89-84.77,31.93-9.01,57.49,11.11,66.24,40.89ZM635.3,208.24l50.4-20.96c1.71-2.7-6.37-8.58-8.49-9.6-20.51-9.92-43.08,9.13-41.91,30.56Z"/>
  <rect class="cls-5" x="575.9" y="96.43" width="24.46" height="167.14"/>
</svg>