<?xml version="1.0" encoding="UTF-8"?>
<svg id="Layer_1" data-name="Layer 1" xmlns="http://www.w3.org/2000/svg" xmlns:xlink="http://www.w3.org/1999/xlink" viewBox="0 0 1200 630">
  <defs>
    <style>
      .cls-1 {
        fill: #00403d;
      }

      .cls-2 {
        letter-spacing: -.01em;
      }

      .cls-3 {
        fill: #e4e9e9;
        font-family: Inter-SemiBold, Inter;
        font-size: 151.58px;
        font-weight: 600;
      }

      .cls-4 {
        fill: url(#linear-gradient);
      }
    </style>
    <linearGradient id="linear-gradient" x1="96.21" y1="309.46" x2="338.01" y2="300.22" gradientUnits="userSpaceOnUse">
      <stop offset="0" stop-color="#d9ff00"/>
      <stop offset="1" stop-color="#fff"/>
    </linearGradient>
  </defs>
  <rect class="cls-1" width="1200" height="636.33"/>
  <path class="cls-4" d="M85.07,304.33l28.09,55.42c11.66,22.81,27.86,17.42,35.14,4.92,9.52-16.37,19.48-36.81,24.3-46.97,1.56-3.28,19.34-29.43,36.73-1.61,5.23,8.28,22.85,46.1,22.85,46.1,0,0,15.75,27.32,33.94,3.08,2.02-2.69,3.7-5.64,5.1-8.7,13.47-29.36,19.64-39.01,19.64-39.01,0,0,12.96-24.91,36.36-13.22-9.84-21.98-23.07-47.87-28.1-57.6-2.18-4.21-5.41-7.83-9.49-10.24-7.54-4.46-19.58-6.33-30.17,15.37-15.53,31.82-27.59,67.46-49.86,46.12-3.55-3.4-6.42-7.46-8.61-11.86-16.8-33.77-22.11-42.12-22.11-42.12,0,0-20.66-26.45-39.67,12.4-12.8,26.15-19.41,38.76-22.37,44.21-9.68,15.08-23.34,7.58-31.76,3.73Z"/>
  <text class="cls-3" transform="translate(354.76 358.79)"><tspan x="0" y="0">Simut</tspan><tspan class="cls-2" x="423.79" y="0">r</tspan><tspan x="482.35" y="0">ade</tspan></text>
</svg>