
<?xml version="1.0" encoding="UTF-8"?>
<svg id="Layer_1" data-name="Layer 1" xmlns="http://www.w3.org/2000/svg" viewBox="0 0 1080 1080">
  <defs>
    <style>
      .cls-1 {
        fill: #cff814;
      }
    </style>
  </defs>
  <path class="cls-1" d="M191.67,517.59l80.8,159.42c33.55,65.63,80.16,50.11,101.09,14.15,27.4-47.09,56.03-105.9,69.91-135.12,4.49-9.45,55.63-84.67,105.67-4.63,15.04,23.82,65.75,132.62,65.75,132.62,0,0,45.3,78.6,97.64,8.86,5.81-7.75,10.63-16.22,14.67-25.02,38.74-84.48,56.51-112.23,56.51-112.23,0,0,37.27-71.66,104.62-38.04-28.31-63.24-66.37-137.71-80.85-165.72-6.27-12.12-15.56-22.53-27.31-29.47-21.7-12.82-56.34-18.2-86.81,44.21-44.68,91.54-79.37,194.07-143.45,132.69-10.21-9.78-18.47-21.45-24.77-34.11-48.33-97.16-63.61-121.16-63.61-121.16,0,0-59.44-76.09-114.13,35.66-36.81,75.22-55.85,111.5-64.36,127.18-27.85,43.38-67.16,21.8-91.38,10.72Z"/>
</svg>