<?xml version="1.0" encoding="UTF-8"?>
<svg id="Layer_1" data-name="Layer 1" xmlns="http://www.w3.org/2000/svg" xmlns:xlink="http://www.w3.org/1999/xlink" viewBox="0 0 1080 1080">
  <defs>
    <style>
      .cls-1 {
        fill: #00403d;
      }

      .cls-2 {
        fill: url(#linear-gradient);
      }
    </style>
    <linearGradient id="linear-gradient" x1="193.07" y1="555.5" x2="956.1" y2="526.34" gradientUnits="userSpaceOnUse">
      <stop offset="0" stop-color="#d9ff00"/>
      <stop offset="1" stop-color="#fff"/>
    </linearGradient>
  </defs>
  <rect class="cls-1" x="47.62" y="47.62" width="984.76" height="984.76" rx="244.67" ry="244.67"/>
  <path class="cls-2" d="M157.93,539.31l88.63,174.87c36.8,71.99,87.93,54.96,110.88,15.52,30.05-51.65,61.46-116.16,76.68-148.21,4.92-10.36,61.02-92.88,115.91-5.08,16.5,26.13,72.12,145.46,72.12,145.46,0,0,49.69,86.21,107.09,9.71,6.38-8.5,11.66-17.79,16.09-27.44,42.5-92.66,61.98-123.1,61.98-123.1,0,0,40.88-78.6,114.75-41.73-31.06-69.36-72.8-151.05-88.69-181.78-6.87-13.3-17.07-24.71-29.96-32.32-23.8-14.06-61.8-19.97-95.22,48.49-49.01,100.41-87.06,212.87-157.34,145.54-11.2-10.73-20.26-23.53-27.17-37.41-53.01-106.57-69.77-132.9-69.77-132.9,0,0-65.2-83.46-125.18,39.12-40.38,82.51-61.26,122.3-70.59,139.5-30.55,47.59-73.67,23.92-100.23,11.76Z"/>
</svg>